<?xml version="1.0" encoding="UTF-8"?>
<svg width="105px" height="113px" viewBox="0 0 105 113" version="1.1" xmlns="http://www.w3.org/2000/svg" xmlns:xlink="http://www.w3.org/1999/xlink">
    <!-- Generator: Sketch 61.2 (89653) - https://sketch.com -->
    <title>logo_active_hover</title>
    <desc>Created with Sketch</desc>
    <g id="Page-1" stroke="none" stroke-width="1" fill="none" fill-rule="evenodd">
        <g id="logo_active_hover" fill="#FFFFFF" fill-rule="nonzero">
            <polygon id="Path" points="0 29.44 0 32.84 52.13 62.25 98.69 35.96 98.7 46.58 52.13 73.04 2.62 44.91 0 46.37 0 66.72 52.13 96.06 98.69 69.86 98.7 80.4 52.13 106.86 2.62 78.73 0 80.19 0 83.64 52.13 112.97 104.26 83.64 104.26 63.27 101.63 61.82 52.13 89.95 5.56 63.49 5.56 53 52.13 79.17 104.26 49.83 104.26 29.76 101.63 28.3 52.13 56.44 7.95 31.33 52.13 6.38 88.52 26.94 91.7 25.15 91.7 22.35 52.13 0"></polygon>
        </g>
    </g>
</svg>
